<?xml version="1.0" encoding="UTF-8"?>
<svg width="162px" height="164px" viewBox="0 0 162 164" version="1.1" xmlns="http://www.w3.org/2000/svg" xmlns:xlink="http://www.w3.org/1999/xlink">
    <!-- Generator: Sketch 55.2 (78181) - https://sketchapp.com -->
    <title>Question Mark</title>
    <desc>Created with Sketch.</desc>
    <defs>
        <circle id="path-1" cx="77" cy="77" r="77"></circle>
        <filter x="-5.8%" y="-3.2%" width="111.7%" height="113.0%" filterUnits="objectBoundingBox" id="filter-2">
            <feOffset dx="0" dy="6" in="SourceAlpha" result="shadowOffsetOuter1"></feOffset>
            <feGaussianBlur stdDeviation="2" in="shadowOffsetOuter1" result="shadowBlurOuter1"></feGaussianBlur>
            <feColorMatrix values="0 0 0 0 0   0 0 0 0 0   0 0 0 0 0  0 0 0 0.5 0" type="matrix" in="shadowBlurOuter1"></feColorMatrix>
        </filter>
    </defs>
    <g id="Page-1" stroke="none" stroke-width="1" fill="none" fill-rule="evenodd">
        <g id="Question-Mark" transform="translate(4.000000, 0.000000)">
            <g id="Oval-3-Copy-10" fill-rule="nonzero">
                <use fill="black" fill-opacity="1" filter="url(#filter-2)" xlink:href="#path-1"></use>
                <use fill="#00A9FF" xlink:href="#path-1"></use>
            </g>
            <path d="M72.9140625,88.4765625 C72.9609377,85.6874861 73.2773408,83.4843831 73.8632812,81.8671875 C74.4492217,80.2499919 75.6445222,78.4570411 77.4492188,76.4882812 L82.0546875,71.7421875 C84.0234473,69.5156139 85.0078125,67.1250128 85.0078125,64.5703125 C85.0078125,62.1093627 84.3632877,60.1816476 83.0742188,58.7871094 C81.7851498,57.3925712 79.9101686,56.6953125 77.4492188,56.6953125 C75.0585818,56.6953125 73.136726,57.3281187 71.6835938,58.59375 C70.2304615,59.8593813 69.5039062,61.5585831 69.5039062,63.6914062 L63,63.6914062 C63.0468752,59.8945123 64.4003773,56.8300898 67.0605469,54.4980469 C69.7207164,52.166004 73.1835724,51 77.4492188,51 C81.8789284,51 85.3300658,52.1894412 87.8027344,54.5683594 C90.275403,56.9472775 91.5117188,60.2109168 91.5117188,64.359375 C91.5117188,68.460958 89.6133002,72.5038863 85.8164062,76.4882812 L81.984375,80.2851562 C80.2734289,82.1836032 79.4179688,84.9140447 79.4179688,88.4765625 L72.9140625,88.4765625 Z M72.6328125,99.6210938 C72.6328125,98.566401 72.9550749,97.6816442 73.5996094,96.9667969 C74.2441438,96.2519496 75.1992124,95.8945312 76.4648438,95.8945312 C77.7304751,95.8945312 78.691403,96.2519496 79.3476562,96.9667969 C80.0039095,97.6816442 80.3320312,98.566401 80.3320312,99.6210938 C80.3320312,100.675787 80.0039095,101.548825 79.3476562,102.240234 C78.691403,102.931644 77.7304751,103.277344 76.4648438,103.277344 C75.1992124,103.277344 74.2441438,102.931644 73.5996094,102.240234 C72.9550749,101.548825 72.6328125,100.675787 72.6328125,99.6210938 Z" id="?" fill="#FFFFFF"></path>
        </g>
    </g>
</svg>